<svg width="40" height="40" fill="none" xmlns="http://www.w3.org/2000/svg"><path d="M20.312 6a4.405 4.405 0 00-3.108 1.282 4.365 4.365 0 00-1.287 3.093v.077a10.536 10.536 0 00-4.482 3.876A10.467 10.467 0 009.765 20v8.75c0 1.392.555 2.728 1.544 3.712A5.286 5.286 0 0015.04 34h5.725a9.63 9.63 0 01-1.155-1.75h-4.57a3.524 3.524 0 01-2.487-1.025 3.492 3.492 0 01-1.03-2.475v-3.5h3.516v2.625a.873.873 0 00.88.875.873.873 0 00.879-.875V25.25h2.121c.174-.61.404-1.195.69-1.75h-8.085V20a8.728 8.728 0 012.27-5.878 8.819 8.819 0 0111.748-1.163 8.746 8.746 0 013.39 5.317c.63.044 1.243.15 1.834.31a10.484 10.484 0 00-1.98-4.84 10.55 10.55 0 00-4.078-3.294v-.077c0-1.16-.463-2.273-1.287-3.093A4.405 4.405 0 0020.312 6zm0 3.5c-.89 0-1.753.11-2.577.315a2.623 2.623 0 01.922-1.487 2.644 2.644 0 013.31 0c.47.376.795.901.922 1.487a10.691 10.691 0 00-2.577-.315z" fill="#222"/><path d="M22.662 20a9.651 9.651 0 012.716-1.326c.134-.29.208-.611.208-.949 0-.789-.315-1.546-.876-2.104a2.996 2.996 0 00-2.113-.87h-4.57a3 3 0 00-2.114.87 2.968 2.968 0 00-.875 2.104 2.265 2.265 0 00.67 1.609 2.286 2.286 0 001.615.666h5.34zm-5.866-2.275a1.225 1.225 0 011.23-1.225h4.571c.327 0 .64.13.87.359.231.23.36.541.36.866a.524.524 0 01-.527.525h-5.977a.528.528 0 01-.527-.525z" fill="#222"/><rect x="20" y="20" width="16" height="16" rx="8" fill="#86E3CE"/><path d="M28.103 32h.996v-8.004h-.876l-2.004 2.064.6.612 1.284-1.356V32z" fill="#fff"/></svg>