<svg width="24" height="24" fill="none" xmlns="http://www.w3.org/2000/svg"><path d="M12 0C5.373 0 0 5.373 0 12s5.373 12 12 12 12-5.373 12-12C23.993 5.376 18.624.007 12 0zm9.293 5.756l-.831 3.535-4.382 1.46-3.68-2.943V3.471l4.2-1.68a11.268 11.268 0 014.693 3.965zm.067 12.382l-3.967.627-2.16-2.854 1.1-4.4 4.333-1.444 2.482 2.979a11.127 11.127 0 01-1.788 5.092zm-14.736.63l-3.984-.63a11.129 11.129 0 01-1.788-5.094l2.48-2.978 4.333 1.444 1.1 4.402-2.14 2.855zM.804 11.85a11.128 11.128 0 011.312-5.112l.649 2.76L.804 11.85zm8.708 3.75l-1.06-4.249L12 8.512l3.55 2.84-1.062 4.248H9.512zm11.723-6.102l.649-2.76a11.127 11.127 0 011.313 5.111l-1.962-2.351zM15.51 1.366L12 2.77 8.472 1.372a11.159 11.159 0 017.037-.006zM7.381 1.8L11.6 3.472v4.336l-3.68 2.944-4.382-1.46-.831-3.536A11.27 11.27 0 017.38 1.8zM3.308 19.053l3.252.514 1.966 3.08a11.237 11.237 0 01-5.218-3.593zm6.365 3.902l-2.387-3.737L9.4 16.4h5.2l2.144 2.832-2.08 3.645c-1.636.403-3.342.43-4.99.08v-.002zm6.102-.411l1.705-2.984 3.213-.507a11.244 11.244 0 01-4.918 3.49z" fill="#222"/></svg>