<svg width="26" height="26" fill="none" xmlns="http://www.w3.org/2000/svg"><path d="M15.56 13a2.56 2.56 0 11-5.12 0 2.56 2.56 0 015.12 0z" fill="#fff"/><path fill-rule="evenodd" clip-rule="evenodd" d="M18.585 8.775a2.22 2.22 0 00-.536-.824 2.218 2.218 0 00-.824-.536c-.252-.098-.631-.215-1.33-.247-.755-.034-.982-.041-2.895-.041s-2.14.007-2.895.041c-.698.032-1.078.149-1.33.247a2.217 2.217 0 00-.824.536 2.221 2.221 0 00-.536.824c-.098.252-.215.632-.247 1.33-.034.755-.041.982-.041 2.895s.007 2.14.041 2.895c.032.699.149 1.078.247 1.33.115.312.298.593.536.824.231.238.512.421.824.536.252.098.632.215 1.33.247.755.034.982.041 2.895.041s2.14-.007 2.895-.041c.699-.032 1.078-.149 1.33-.247a2.372 2.372 0 001.36-1.36c.098-.252.215-.631.247-1.33.034-.755.041-.982.041-2.895s-.007-2.14-.041-2.895c-.032-.698-.149-1.078-.247-1.33zM13 16.679a3.679 3.679 0 110-7.358 3.679 3.679 0 010 7.358zm3.825-6.644a.86.86 0 110-1.72.86.86 0 010 1.72z" fill="#fff"/><path fill-rule="evenodd" clip-rule="evenodd" d="M.5 13C.5 6.098 6.098.5 13 .5S25.5 6.098 25.5 13 19.902 25.5 13 25.5.5 19.902.5 13zm19.3 4.702c.178-.457.3-.979.334-1.743.035-.765.044-1.01.044-2.959 0-1.95-.009-2.194-.043-2.96-.035-.763-.157-1.285-.334-1.742a3.517 3.517 0 00-.828-1.27 3.52 3.52 0 00-1.271-.829c-.457-.177-.979-.299-1.743-.333-.765-.035-1.01-.044-2.959-.044-1.95 0-2.194.009-2.96.044-.763.034-1.285.156-1.742.333-.479.18-.912.463-1.27.828a3.516 3.516 0 00-.829 1.271c-.177.457-.299.979-.333 1.743-.036.765-.044 1.01-.044 2.959 0 1.95.008 2.194.044 2.96.034.763.156 1.285.333 1.742.18.478.463.912.828 1.27.359.366.792.649 1.272.829.456.177.978.299 1.742.333.765.035 1.01.044 2.96.044 1.949 0 2.193-.009 2.958-.044.764-.035 1.286-.156 1.743-.333a3.67 3.67 0 002.099-2.1z" fill="#fff"/></svg>