<svg width="187" height="32" fill="none" xmlns="http://www.w3.org/2000/svg"><path d="M27.607 0L32 4.393 20.393 16 16 11.607 27.607 0zM4.393 32L0 27.607 11.607 16 16 20.393 4.393 32zM0 4.393L4.393 0 16 11.607 11.607 16 0 4.393zm32 23.214L27.607 32 16 20.393 20.393 16 32 27.607zm27.592-13.253a.418.418 0 01-.28-.105.418.418 0 01-.105-.28v-.123a.635.635 0 00-.21-.49.635.635 0 00-.49-.21h-3.41a.636.636 0 00-.49.21.664.664 0 00-.193.49v5.808c0 .198.064.367.192.507a.664.664 0 00.49.193h3.412a.69.69 0 00.7-.7v-.122c0-.105.034-.193.104-.263a.385.385 0 01.28-.122h1.627a.33.33 0 01.262.122c.082.07.123.158.123.263v.122c0 .431-.082.834-.245 1.207a3.164 3.164 0 01-1.644 1.644 2.977 2.977 0 01-1.207.245h-3.412a3.06 3.06 0 01-2.186-.91 3.166 3.166 0 01-.665-.98A2.977 2.977 0 0152 19.655v-5.808c0-.431.082-.834.245-1.207.163-.373.385-.7.665-.98s.606-.5.98-.664a3.061 3.061 0 011.206-.245h3.412c.431 0 .833.082 1.207.245a3.165 3.165 0 011.644 1.644c.163.373.245.776.245 1.207v.123c0 .105-.04.198-.123.28a.356.356 0 01-.262.105h-1.627zM77.125 22.4c.047.094.047.175 0 .245-.046.07-.122.105-.227.105h-1.872a.565.565 0 01-.315-.105.694.694 0 01-.21-.245l-2.011-4.443h-2.38v4.408c0 .105-.04.199-.122.28a.356.356 0 01-.262.105H68.08a.418.418 0 01-.28-.105.418.418 0 01-.105-.28v-11.23c0-.105.035-.192.105-.262a.385.385 0 01.28-.123h6.123c.431 0 .834.082 1.207.245a3.15 3.15 0 011.644 1.645c.164.372.245.775.245 1.206v1.015c0 .35-.058.688-.175 1.014a3.122 3.122 0 01-.454.875 3.002 3.002 0 01-.718.665 2.988 2.988 0 01-.892.42l2.064 4.565zm-2.921-6.84a.69.69 0 00.7-.7v-1.014a.635.635 0 00-.21-.49.635.635 0 00-.49-.21H70.11v2.415h4.094zM89.9 10.768c.432 0 .834.081 1.207.244.374.164.7.385.98.665s.501.607.665.98c.163.373.245.77.245 1.19v5.824c0 .42-.082.817-.245 1.19a3.164 3.164 0 01-1.644 1.644 2.978 2.978 0 01-1.208.245h-3.41c-.431 0-.834-.081-1.207-.245a3.164 3.164 0 01-1.644-1.644 2.935 2.935 0 01-.245-1.19v-5.825c0-.42.081-.816.245-1.19.163-.372.384-.699.664-.979s.607-.501.98-.665a2.978 2.978 0 011.207-.244h3.41zm.7 3.078a.635.635 0 00-.21-.49.664.664 0 00-.49-.192h-3.41a.724.724 0 00-.507.193.664.664 0 00-.193.49v5.824a.66.66 0 00.193.49c.14.128.309.193.507.193h3.41a.663.663 0 00.49-.193.635.635 0 00.21-.49v-5.825zm16.064.508a.417.417 0 01-.28-.105.418.418 0 01-.105-.28v-.123a.661.661 0 00-.193-.49.634.634 0 00-.489-.21h-3.429c-.187 0-.35.07-.49.21a.664.664 0 00-.192.49v1.015c0 .198.064.367.192.507.14.128.303.193.49.193h3.429c.419 0 .816.081 1.189.245.373.163.7.384.98.664s.501.607.665.98c.163.373.244.77.244 1.19v1.014c0 .431-.081.834-.244 1.207-.164.373-.385.7-.665.98a3.17 3.17 0 01-.98.664c-.373.164-.77.245-1.189.245h-3.429c-.42 0-.817-.081-1.19-.245a3.171 3.171 0 01-.98-.665 3.166 3.166 0 01-.664-.98 2.977 2.977 0 01-.245-1.206v-.122c0-.105.035-.193.105-.263a.385.385 0 01.28-.122h1.627a.33.33 0 01.262.122.33.33 0 01.123.263v.122c0 .198.064.367.192.507.14.128.303.193.49.193h3.429a.662.662 0 00.489-.193.721.721 0 00.193-.507v-1.015a.661.661 0 00-.682-.682h-3.429a2.94 2.94 0 01-1.19-.245 3.171 3.171 0 01-.98-.665 3.059 3.059 0 01-.91-2.187v-1.014a3 3 0 01.246-1.207c.163-.373.385-.7.665-.98s.606-.5.979-.664a2.94 2.94 0 011.19-.245h3.429c.419 0 .816.082 1.189.245a3.165 3.165 0 011.645 1.645c.163.372.244.775.244 1.206v.123a.418.418 0 01-.105.28.355.355 0 01-.262.105h-1.644zm15.696 0a.42.42 0 01-.28-.105.418.418 0 01-.105-.28v-.123a.664.664 0 00-.192-.49.637.637 0 00-.49-.21h-3.429c-.186 0-.35.07-.49.21a.664.664 0 00-.192.49v1.015c0 .198.064.367.192.507.14.128.304.193.49.193h3.429c.42 0 .816.081 1.189.245a3.161 3.161 0 011.645 1.644c.163.373.245.77.245 1.19v1.014c0 .431-.082.834-.245 1.207a3.16 3.16 0 01-1.645 1.644 2.931 2.931 0 01-1.189.245h-3.429a2.92 2.92 0 01-1.189-.245 3.158 3.158 0 01-1.645-1.644 2.982 2.982 0 01-.245-1.207v-.122c0-.105.035-.193.105-.263a.386.386 0 01.28-.122h1.627a.33.33 0 01.262.122.33.33 0 01.123.263v.122c0 .198.064.367.192.507.14.128.304.193.49.193h3.429a.665.665 0 00.49-.193.725.725 0 00.192-.507v-1.015a.664.664 0 00-.192-.49.666.666 0 00-.49-.192h-3.429c-.42 0-.816-.082-1.189-.245a3.158 3.158 0 01-1.645-1.644 3.064 3.064 0 01-.245-1.207v-1.015c0-.431.082-.834.245-1.207a3.16 3.16 0 011.645-1.644 2.933 2.933 0 011.189-.245h3.429c.42 0 .816.082 1.189.245a3.161 3.161 0 011.645 1.644c.163.373.245.776.245 1.207v.123a.418.418 0 01-.105.28.358.358 0 01-.263.105h-1.644zm14.629-3.604c.42 0 .817.082 1.19.245a3.156 3.156 0 011.644 1.644c.163.373.245.776.245 1.207v1.015c0 .361-.058.7-.175 1.014a3.508 3.508 0 01-.472.875c.198.268.356.56.472.875.117.315.175.653.175 1.014v1.015c0 .431-.082.834-.245 1.207a3.16 3.16 0 01-1.644 1.644c-.373.164-.77.245-1.19.245h-6.14a.355.355 0 01-.262-.105.418.418 0 01-.105-.28v-11.23c0-.105.035-.192.105-.262a.33.33 0 01.262-.123h6.14zm-4.111 4.793h4.111a.644.644 0 00.473-.192.638.638 0 00.209-.49v-1.015a.638.638 0 00-.209-.49.618.618 0 00-.473-.21h-4.111v2.397zm4.793 3.096a.638.638 0 00-.209-.49.644.644 0 00-.473-.192h-4.111v2.397h4.111a.644.644 0 00.473-.193.694.694 0 00.209-.507v-1.015zm14.927-7.889c.105 0 .205.035.298.105a.52.52 0 01.21.245l2.519 6.262c.035.094.064.216.087.368.035.14.053.262.053.367v4.268a.385.385 0 01-.123.28.355.355 0 01-.262.105h-1.644a.417.417 0 01-.28-.105.418.418 0 01-.105-.28v-2.011h-4.794v2.011c0 .105-.04.199-.122.28a.355.355 0 01-.262.105h-1.627a.417.417 0 01-.28-.105.418.418 0 01-.105-.28v-4.268c0-.105.012-.227.035-.367.035-.152.07-.274.105-.368l2.501-6.262a.7.7 0 01.21-.245.565.565 0 01.315-.105h3.271zm-3.953 7.207h4.618l-1.924-4.81h-.77l-1.924 4.81zm22.291 4.793h-8.187a.42.42 0 01-.28-.105.417.417 0 01-.104-.28v-11.23c0-.105.034-.192.104-.262a.386.386 0 01.28-.123h1.627c.105 0 .193.04.263.123.081.07.122.157.122.262v9.219h6.175c.105 0 .193.04.263.122.07.07.105.158.105.262v1.627a.418.418 0 01-.105.28.358.358 0 01-.263.105zm15.697 0h-8.187a.417.417 0 01-.28-.105.418.418 0 01-.105-.28v-11.23c0-.105.035-.192.105-.262a.384.384 0 01.28-.123h1.627a.33.33 0 01.262.123.33.33 0 01.122.262v9.219h6.176a.33.33 0 01.262.122c.07.07.105.158.105.262v1.627a.418.418 0 01-.105.28.355.355 0 01-.262.105z" fill="#222"/></svg>