<svg width="26" height="26" fill="none" xmlns="http://www.w3.org/2000/svg"><path fill-rule="evenodd" clip-rule="evenodd" d="M25.5 13c0 6.903-5.597 12.5-12.5 12.5S.5 19.903.5 13 6.097.5 13 .5 25.5 6.097 25.5 13zM13.448 9.728c-1.216.505-3.646 1.552-7.29 3.14-.591.235-.902.465-.93.69-.048.382.43.532 1.077.735.089.028.18.056.274.087.639.207 1.497.45 1.943.46.405.008.857-.159 1.356-.5 3.404-2.3 5.162-3.46 5.272-3.486.078-.018.186-.04.26.025.072.065.065.188.058.221-.048.201-1.917 1.94-2.886 2.84a29.3 29.3 0 00-.56.525c-.097.1-.197.197-.293.29-.594.571-1.037 1 .025 1.7.51.337.919.615 1.326.892.445.303.889.605 1.464.982.146.096.285.195.422.292.517.37.983.7 1.558.649.333-.032.68-.345.854-1.282.414-2.214 1.228-7.01 1.417-8.987a2.252 2.252 0 00-.021-.492.527.527 0 00-.18-.338c-.148-.122-.38-.148-.484-.146-.47.008-1.19.26-4.662 1.703z" fill="#fff"/></svg>