<svg width="26" height="26" fill="none" xmlns="http://www.w3.org/2000/svg"><path d="M13 .5C6.096.5.5 6.096.5 13S6.096 25.5 13 25.5 25.5 19.904 25.5 13 19.904.5 13 .5zm4.807 14.103s1.106 1.091 1.378 1.598c.008.01.012.02.014.026.11.186.137.33.082.438-.09.18-.403.269-.51.276h-1.953c-.136 0-.42-.035-.763-.272-.265-.185-.525-.488-.779-.784-.379-.44-.707-.82-1.038-.82a.396.396 0 00-.123.02c-.25.08-.57.437-.57 1.388 0 .297-.235.467-.4.467h-.895c-.305 0-1.892-.107-3.298-1.59C7.23 13.534 5.68 9.89 5.668 9.857c-.098-.236.104-.362.324-.362h1.973c.263 0 .349.16.409.302.07.165.328.823.751 1.562.686 1.206 1.107 1.696 1.444 1.696a.39.39 0 00.181-.047c.44-.245.358-1.814.338-2.14 0-.06 0-.701-.226-1.009-.162-.222-.436-.307-.603-.338a.716.716 0 01.26-.22c.301-.151.846-.173 1.386-.173h.3c.587.007.738.045.95.099.43.102.439.38.401 1.329-.012.27-.023.574-.023.934 0 .078-.004.161-.004.25-.013.483-.029 1.03.312 1.256a.282.282 0 00.149.043c.118 0 .475 0 1.441-1.657a12.64 12.64 0 00.775-1.66c.02-.033.077-.137.144-.178a.346.346 0 01.162-.037h2.319c.252 0 .425.037.458.135.057.155-.01.628-1.069 2.061l-.473.624c-.96 1.258-.96 1.321.06 2.276z" fill="#fff"/></svg>