<svg width="26" height="26" fill="none" xmlns="http://www.w3.org/2000/svg"><path fill-rule="evenodd" clip-rule="evenodd" d="M13.167 25.667c6.903 0 12.5-5.597 12.5-12.5 0-6.904-5.597-12.5-12.5-12.5-6.904 0-12.5 5.596-12.5 12.5 0 6.903 5.596 12.5 12.5 12.5zM16.059 6.23a7.42 7.42 0 012.422 1.617 7.388 7.388 0 012.186 5.258c-.002 4.098-3.353 7.433-7.469 7.433h-.003a7.499 7.499 0 01-3.57-.905l-3.958 1.034 1.059-3.851a7.405 7.405 0 01-.997-3.716C5.731 9 9.082 5.667 13.2 5.667a7.45 7.45 0 012.86.563zm-2.863 13.053h.002c3.421 0 6.206-2.772 6.207-6.178a6.116 6.116 0 00-1.816-4.371 6.17 6.17 0 00-4.388-1.812c-3.425 0-6.21 2.771-6.21 6.178a6.145 6.145 0 00.949 3.288l.147.233-.627 2.28 2.35-.614.226.134a6.218 6.218 0 003.16.862zm2.132-5.232c.171.062 1.088.51 1.275.604l.102.05c.13.063.219.105.256.168.047.078.047.45-.109.884-.155.434-.9.83-1.26.882a2.575 2.575 0 01-1.175-.073c-.27-.086-.618-.2-1.064-.392-1.751-.753-2.934-2.443-3.156-2.76l-.032-.044-.002-.004c-.102-.135-.76-1.012-.76-1.918 0-.856.422-1.303.616-1.51l.037-.04a.687.687 0 01.498-.231 8.06 8.06 0 01.398.007c.11-.001.245-.003.379.317l.209.505c.16.387.335.812.366.874.048.093.079.201.016.325l-.027.054c-.046.095-.08.164-.16.256l-.095.114c-.064.078-.128.156-.184.211-.094.093-.191.193-.082.38a5.6 5.6 0 001.038 1.286 4.81 4.81 0 001.378.867c.051.022.093.04.123.055.186.093.295.078.404-.046.11-.125.467-.543.592-.728.124-.186.248-.155.419-.093z" fill="#fff"/></svg>