<svg width="26" height="26" fill="none" xmlns="http://www.w3.org/2000/svg"><path d="M15.594 13l-4.245 2.594v-5.188L15.594 13z" fill="#fff"/><path fill-rule="evenodd" clip-rule="evenodd" d="M.5 13C.5 6.098 6.098.5 13 .5S25.5 6.098 25.5 13 19.902 25.5 13 25.5.5 19.902.5 13zm19.989 3.77c.322-1.222.322-3.757.322-3.757s.013-2.548-.322-3.77a1.957 1.957 0 00-1.377-1.377C17.89 7.53 13 7.53 13 7.53s-4.89 0-6.112.322c-.656.18-1.197.72-1.377 1.39C5.189 10.465 5.189 13 5.189 13s0 2.548.322 3.757c.18.67.708 1.197 1.377 1.377 1.235.335 6.112.335 6.112.335s4.89 0 6.112-.322a1.957 1.957 0 001.377-1.377z" fill="#fff"/></svg>