<svg width="26" height="26" fill="none" xmlns="http://www.w3.org/2000/svg"><path fill-rule="evenodd" clip-rule="evenodd" d="M13 25.5c6.904 0 12.5-5.596 12.5-12.5S19.904.5 13 .5.5 6.096.5 13 6.096 25.5 13 25.5zm4.496-16.996a3.429 3.429 0 00-4.85 0l-.863.863a.5.5 0 10.708.707l.863-.863a2.429 2.429 0 113.434 3.435l-.862.863a.5.5 0 10.707.707l.863-.862a3.429 3.429 0 000-4.85zm-2.59 3.296a.5.5 0 10-.706-.707L11.093 14.2a.5.5 0 00.707.707l3.107-3.107zm-4.832.69a.5.5 0 10-.707-.707l-.863.864a3.429 3.429 0 104.85 4.849l.863-.863a.5.5 0 00-.708-.707l-.863.863a2.429 2.429 0 01-3.435-3.435l.863-.863z" fill="#fff"/></svg>